<?xml version="1.0" encoding="UTF-8" standalone="no"?>
<!DOCTYPE svg PUBLIC "-//W3C//DTD SVG 1.1//EN"
 "http://www.w3.org/Graphics/SVG/1.1/DTD/svg11.dtd">
<!-- Generated by graphviz version 2.43.0 (0)
 -->
<!-- Title: GHG_Report_Generation Pages: 1 -->
<svg width="997pt" height="511pt"
 viewBox="0.00 0.00 997.32 511.00" xmlns="http://www.w3.org/2000/svg" xmlns:xlink="http://www.w3.org/1999/xlink">
<g id="graph0" class="graph" transform="scale(1 1) rotate(0) translate(4 507)">
<title>GHG_Report_Generation</title>
<polygon fill="white" stroke="transparent" points="-4,4 -4,-507 993.32,-507 993.32,4 -4,4"/>
<g id="clust1" class="cluster">
<title>cluster_input</title>
<polygon fill="white" stroke="gray" stroke-dasharray="5,2" points="13.1,-23 13.1,-266 120.1,-266 120.1,-23 13.1,-23"/>
<text text-anchor="middle" x="66.6" y="-250.8" font-family="Times,serif" font-size="14.00">INPUT</text>
</g>
<g id="clust2" class="cluster">
<title>cluster_calculation</title>
<polygon fill="white" stroke="gray" stroke-dasharray="5,2" points="279.2,-8 279.2,-449 452.18,-449 452.18,-8 279.2,-8"/>
<text text-anchor="middle" x="365.69" y="-433.8" font-family="Times,serif" font-size="14.00">CALCULATION</text>
</g>
<g id="clust3" class="cluster">
<title>cluster_intermediate</title>
<polygon fill="white" stroke="gray" stroke-dasharray="5,2" points="594.18,-16 594.18,-145 803.32,-145 803.32,-16 594.18,-16"/>
<text text-anchor="middle" x="698.75" y="-129.8" font-family="Times,serif" font-size="14.00">INTERMEDIATE</text>
</g>
<g id="clust4" class="cluster">
<title>cluster_output</title>
<polygon fill="white" stroke="gray" stroke-dasharray="5,2" points="870.32,-184 870.32,-421 981.32,-421 981.32,-184 870.32,-184"/>
<text text-anchor="middle" x="925.82" y="-405.8" font-family="Times,serif" font-size="14.00">OUTPUT</text>
</g>
<!-- energy_input -->
<g id="node1" class="node">
<title>energy_input</title>
<polygon fill="#e3f2fd" stroke="#1976d2" stroke-width="2" points="109.6,-234.5 23.6,-234.5 23.6,-193.5 109.6,-193.5 109.6,-234.5"/>
<text text-anchor="middle" x="66.6" y="-222.5" font-family="Helvetica,sans-Serif" font-size="10.00">Gas: 200 m³</text>
<text text-anchor="middle" x="66.6" y="-211.5" font-family="Helvetica,sans-Serif" font-size="10.00">Oil: 20 kL</text>
<text text-anchor="middle" x="66.6" y="-200.5" font-family="Helvetica,sans-Serif" font-size="10.00">Elec: 100 kWh</text>
</g>
<!-- scope1_moe -->
<g id="node5" class="node">
<title>scope1_moe</title>
<ellipse fill="#fff3e0" stroke="#f57c00" cx="365.69" cy="-397" rx="60.62" ry="21.43"/>
<text text-anchor="middle" x="365.69" y="-400" font-family="Helvetica,sans-Serif" font-size="10.00">MOE係数使用</text>
<text text-anchor="middle" x="365.69" y="-389" font-family="Helvetica,sans-Serif" font-size="10.00">18.07 ton&#45;CO2</text>
</g>
<!-- energy_input&#45;&gt;scope1_moe -->
<g id="edge1" class="edge">
<title>energy_input&#45;&gt;scope1_moe</title>
<path fill="none" stroke="#ff5722" stroke-width="1.5" d="M109.72,-221.6C152.05,-221.6 210.32,-221.6 210.32,-221.6 210.32,-221.6 210.32,-400 210.32,-400 210.32,-400 295.17,-400 295.17,-400"/>
<polygon fill="#ff5722" stroke="#ff5722" stroke-width="1.5" points="295.17,-403.5 305.17,-400 295.17,-396.5 295.17,-403.5"/>
<text text-anchor="middle" x="210.2" y="-374.8" font-family="Helvetica,sans-Serif" font-size="9.00">energy_to_scope1_moe</text>
<text text-anchor="middle" x="210.2" y="-364.8" font-family="Helvetica,sans-Serif" font-size="9.00">[Scope1]</text>
</g>
<!-- scope1_ghg -->
<g id="node6" class="node">
<title>scope1_ghg</title>
<ellipse fill="#fff3e0" stroke="#f57c00" cx="365.69" cy="-337" rx="78.48" ry="21.43"/>
<text text-anchor="middle" x="365.69" y="-340" font-family="Helvetica,sans-Serif" font-size="10.00">GHGプロトコル係数</text>
<text text-anchor="middle" x="365.69" y="-329" font-family="Helvetica,sans-Serif" font-size="10.00">16.85 ton&#45;CO2</text>
</g>
<!-- energy_input&#45;&gt;scope1_ghg -->
<g id="edge2" class="edge">
<title>energy_input&#45;&gt;scope1_ghg</title>
<path fill="none" stroke="#ff5722" stroke-width="1.5" d="M109.7,-208.69C175.72,-208.69 294.32,-208.69 294.32,-208.69 294.32,-208.69 294.32,-317.77 294.32,-317.77"/>
<polygon fill="#ff5722" stroke="#ff5722" stroke-width="1.5" points="290.82,-317.77 294.32,-327.77 297.82,-317.77 290.82,-317.77"/>
<text text-anchor="middle" x="210.2" y="-261.8" font-family="Helvetica,sans-Serif" font-size="9.00">energy_to_scope1_ghg</text>
<text text-anchor="middle" x="210.2" y="-251.8" font-family="Helvetica,sans-Serif" font-size="9.00">[Scope1]</text>
</g>
<!-- material_input -->
<g id="node2" class="node">
<title>material_input</title>
<polygon fill="#e3f2fd" stroke="#1976d2" stroke-width="2" points="105.6,-67 27.6,-67 27.6,-31 105.6,-31 105.6,-67"/>
<text text-anchor="middle" x="66.6" y="-46.5" font-family="Helvetica,sans-Serif" font-size="10.00">Steel: 30 ton</text>
</g>
<!-- scope3_cat1 -->
<g id="node9" class="node">
<title>scope3_cat1</title>
<ellipse fill="#fff3e0" stroke="#f57c00" cx="365.69" cy="-37" rx="59.29" ry="21.43"/>
<text text-anchor="middle" x="365.69" y="-40" font-family="Helvetica,sans-Serif" font-size="10.00">Cat1: 購入物品</text>
<text text-anchor="middle" x="365.69" y="-29" font-family="Helvetica,sans-Serif" font-size="10.00">15.0 ton&#45;CO2</text>
</g>
<!-- material_input&#45;&gt;scope3_cat1 -->
<g id="edge5" class="edge">
<title>material_input&#45;&gt;scope3_cat1</title>
<path fill="none" stroke="#4caf50" stroke-width="1.5" d="M105.7,-44.61C105.7,-44.61 300.03,-44.61 300.03,-44.61"/>
<polygon fill="#4caf50" stroke="#4caf50" stroke-width="1.5" points="300.03,-48.11 310.03,-44.61 300.03,-41.11 300.03,-48.11"/>
<text text-anchor="middle" x="210.2" y="-45.8" font-family="Helvetica,sans-Serif" font-size="9.00">material_to_scope3_cat1</text>
</g>
<!-- transport_input -->
<g id="node3" class="node">
<title>transport_input</title>
<polygon fill="#e3f2fd" stroke="#1976d2" stroke-width="2" points="112.1,-175 21.1,-175 21.1,-139 112.1,-139 112.1,-175"/>
<text text-anchor="middle" x="66.6" y="-154.5" font-family="Helvetica,sans-Serif" font-size="10.00">Truck: 1000 km</text>
</g>
<!-- scope3_cat4 -->
<g id="node10" class="node">
<title>scope3_cat4</title>
<ellipse fill="#fff3e0" stroke="#f57c00" cx="365.69" cy="-157" rx="56.64" ry="21.43"/>
<text text-anchor="middle" x="365.69" y="-160" font-family="Helvetica,sans-Serif" font-size="10.00">Cat4: 輸送</text>
<text text-anchor="middle" x="365.69" y="-149" font-family="Helvetica,sans-Serif" font-size="10.00">7.83 ton&#45;CO2</text>
</g>
<!-- transport_input&#45;&gt;scope3_cat4 -->
<g id="edge6" class="edge">
<title>transport_input&#45;&gt;scope3_cat4</title>
<path fill="none" stroke="#4caf50" stroke-width="1.5" d="M112.35,-157C112.35,-157 298.95,-157 298.95,-157"/>
<polygon fill="#4caf50" stroke="#4caf50" stroke-width="1.5" points="298.95,-160.5 308.95,-157 298.95,-153.5 298.95,-160.5"/>
<text text-anchor="middle" x="210.2" y="-159.8" font-family="Helvetica,sans-Serif" font-size="9.00">transport_to_scope3_cat4</text>
</g>
<!-- waste_input -->
<g id="node4" class="node">
<title>waste_input</title>
<polygon fill="#e3f2fd" stroke="#1976d2" stroke-width="2" points="105.1,-121 28.1,-121 28.1,-85 105.1,-85 105.1,-121"/>
<text text-anchor="middle" x="66.6" y="-100.5" font-family="Helvetica,sans-Serif" font-size="10.00">Waste: 5 ton</text>
</g>
<!-- scope3_cat5 -->
<g id="node11" class="node">
<title>scope3_cat5</title>
<ellipse fill="#fff3e0" stroke="#f57c00" cx="365.69" cy="-97" rx="56.64" ry="21.43"/>
<text text-anchor="middle" x="365.69" y="-100" font-family="Helvetica,sans-Serif" font-size="10.00">Cat5: 廃棄物</text>
<text text-anchor="middle" x="365.69" y="-89" font-family="Helvetica,sans-Serif" font-size="10.00">1.25 ton&#45;CO2</text>
</g>
<!-- waste_input&#45;&gt;scope3_cat5 -->
<g id="edge7" class="edge">
<title>waste_input&#45;&gt;scope3_cat5</title>
<path fill="none" stroke="#4caf50" stroke-width="1.5" d="M105.39,-101.61C105.39,-101.61 300.44,-101.61 300.44,-101.61"/>
<polygon fill="#4caf50" stroke="#4caf50" stroke-width="1.5" points="300.44,-105.11 310.44,-101.61 300.44,-98.11 300.44,-105.11"/>
<text text-anchor="middle" x="210.2" y="-102.8" font-family="Helvetica,sans-Serif" font-size="9.00">waste_to_scope3_cat5</text>
</g>
<!-- report_moe_loc -->
<g id="node14" class="node">
<title>report_moe_loc</title>
<path fill="#e8f5e9" stroke="#388e3c" stroke-width="2" d="M961.32,-390C961.32,-390 890.32,-390 890.32,-390 884.32,-390 878.32,-384 878.32,-378 878.32,-378 878.32,-366 878.32,-366 878.32,-360 884.32,-354 890.32,-354 890.32,-354 961.32,-354 961.32,-354 967.32,-354 973.32,-360 973.32,-366 973.32,-366 973.32,-378 973.32,-378 973.32,-384 967.32,-390 961.32,-390"/>
<text text-anchor="middle" x="925.82" y="-375" font-family="Helvetica,sans-Serif" font-size="10.00">MOE + Location</text>
<text text-anchor="middle" x="925.82" y="-364" font-family="Helvetica,sans-Serif" font-size="10.00">42.21 ton&#45;CO2</text>
</g>
<!-- scope1_moe&#45;&gt;report_moe_loc -->
<g id="edge11" class="edge">
<title>scope1_moe&#45;&gt;report_moe_loc</title>
<path fill="none" stroke="black" stroke-width="1.5" d="M416.38,-385.26C416.38,-385.26 868.03,-385.26 868.03,-385.26"/>
<polygon fill="black" stroke="black" stroke-width="1.5" points="868.03,-388.76 878.03,-385.26 868.03,-381.76 868.03,-388.76"/>
<text text-anchor="middle" x="698.75" y="-495.8" font-family="Helvetica,sans-Serif" font-size="9.00">aggregate</text>
</g>
<!-- report_moe_mkt -->
<g id="node15" class="node">
<title>report_moe_mkt</title>
<path fill="#e8f5e9" stroke="#388e3c" stroke-width="2" d="M957.32,-282C957.32,-282 894.32,-282 894.32,-282 888.32,-282 882.32,-276 882.32,-270 882.32,-270 882.32,-258 882.32,-258 882.32,-252 888.32,-246 894.32,-246 894.32,-246 957.32,-246 957.32,-246 963.32,-246 969.32,-252 969.32,-258 969.32,-258 969.32,-270 969.32,-270 969.32,-276 963.32,-282 957.32,-282"/>
<text text-anchor="middle" x="925.82" y="-267" font-family="Helvetica,sans-Serif" font-size="10.00">MOE + Market</text>
<text text-anchor="middle" x="925.82" y="-256" font-family="Helvetica,sans-Serif" font-size="10.00">42.20 ton&#45;CO2</text>
</g>
<!-- scope1_moe&#45;&gt;report_moe_mkt -->
<g id="edge14" class="edge">
<title>scope1_moe&#45;&gt;report_moe_mkt</title>
<path fill="none" stroke="black" stroke-width="1.5" d="M404.02,-380.52C497.64,-380.52 730.32,-380.52 730.32,-380.52 730.32,-380.52 730.32,-273.26 730.32,-273.26 730.32,-273.26 871.94,-273.26 871.94,-273.26"/>
<polygon fill="black" stroke="black" stroke-width="1.5" points="871.94,-276.76 881.94,-273.26 871.94,-269.76 871.94,-276.76"/>
<text text-anchor="middle" x="698.75" y="-357.8" font-family="Helvetica,sans-Serif" font-size="9.00">aggregate</text>
</g>
<!-- report_ghg_loc -->
<g id="node16" class="node">
<title>report_ghg_loc</title>
<path fill="#e8f5e9" stroke="#388e3c" stroke-width="2" d="M961.32,-336C961.32,-336 890.32,-336 890.32,-336 884.32,-336 878.32,-330 878.32,-324 878.32,-324 878.32,-312 878.32,-312 878.32,-306 884.32,-300 890.32,-300 890.32,-300 961.32,-300 961.32,-300 967.32,-300 973.32,-306 973.32,-312 973.32,-312 973.32,-324 973.32,-324 973.32,-330 967.32,-336 961.32,-336"/>
<text text-anchor="middle" x="925.82" y="-321" font-family="Helvetica,sans-Serif" font-size="10.00">GHG + Location</text>
<text text-anchor="middle" x="925.82" y="-310" font-family="Helvetica,sans-Serif" font-size="10.00">40.99 ton&#45;CO2</text>
</g>
<!-- scope1_ghg&#45;&gt;report_ghg_loc -->
<g id="edge17" class="edge">
<title>scope1_ghg&#45;&gt;report_ghg_loc</title>
<path fill="none" stroke="black" stroke-width="1.5" d="M432.7,-325.89C432.7,-325.89 868.3,-325.89 868.3,-325.89"/>
<polygon fill="black" stroke="black" stroke-width="1.5" points="868.3,-329.39 878.3,-325.89 868.3,-322.39 868.3,-329.39"/>
<text text-anchor="middle" x="698.75" y="-403.8" font-family="Helvetica,sans-Serif" font-size="9.00">aggregate</text>
</g>
<!-- report_ghg_mkt -->
<g id="node17" class="node">
<title>report_ghg_mkt</title>
<path fill="#e8f5e9" stroke="#388e3c" stroke-width="2" d="M957.32,-228C957.32,-228 894.32,-228 894.32,-228 888.32,-228 882.32,-222 882.32,-216 882.32,-216 882.32,-204 882.32,-204 882.32,-198 888.32,-192 894.32,-192 894.32,-192 957.32,-192 957.32,-192 963.32,-192 969.32,-198 969.32,-204 969.32,-204 969.32,-216 969.32,-216 969.32,-222 963.32,-228 957.32,-228"/>
<text text-anchor="middle" x="925.82" y="-213" font-family="Helvetica,sans-Serif" font-size="10.00">GHG + Market</text>
<text text-anchor="middle" x="925.82" y="-202" font-family="Helvetica,sans-Serif" font-size="10.00">40.98 ton&#45;CO2</text>
</g>
<!-- scope1_ghg&#45;&gt;report_ghg_mkt -->
<g id="edge20" class="edge">
<title>scope1_ghg&#45;&gt;report_ghg_mkt</title>
<path fill="none" stroke="black" stroke-width="1.5" d="M437.32,-328.32C437.32,-301.48 437.32,-221.56 437.32,-221.56 437.32,-221.56 872.03,-221.56 872.03,-221.56"/>
<polygon fill="black" stroke="black" stroke-width="1.5" points="872.03,-225.06 882.03,-221.56 872.03,-218.06 872.03,-225.06"/>
<text text-anchor="middle" x="698.75" y="-265.8" font-family="Helvetica,sans-Serif" font-size="9.00">aggregate</text>
</g>
<!-- scope2_location -->
<g id="node7" class="node">
<title>scope2_location</title>
<ellipse fill="#fff3e0" stroke="#f57c00" cx="365.69" cy="-277" rx="64.19" ry="21.43"/>
<text text-anchor="middle" x="365.69" y="-280" font-family="Helvetica,sans-Serif" font-size="10.00">Location&#45;based</text>
<text text-anchor="middle" x="365.69" y="-269" font-family="Helvetica,sans-Serif" font-size="10.00">0.07 ton&#45;CO2</text>
</g>
<!-- scope2_location&#45;&gt;report_moe_loc -->
<g id="edge12" class="edge">
<title>scope2_location&#45;&gt;report_moe_loc</title>
<path fill="none" stroke="black" stroke-width="1.5" d="M408.76,-292.81C455.43,-292.81 523.32,-292.81 523.32,-292.81 523.32,-292.81 523.32,-371.86 523.32,-371.86 523.32,-371.86 868.06,-371.86 868.06,-371.86"/>
<polygon fill="black" stroke="black" stroke-width="1.5" points="868.06,-375.36 878.06,-371.86 868.06,-368.36 868.06,-375.36"/>
<text text-anchor="middle" x="698.75" y="-449.8" font-family="Helvetica,sans-Serif" font-size="9.00">aggregate</text>
</g>
<!-- scope2_location&#45;&gt;report_ghg_loc -->
<g id="edge18" class="edge">
<title>scope2_location&#45;&gt;report_ghg_loc</title>
<path fill="none" stroke="black" stroke-width="1.5" d="M422.01,-287.4C564.18,-287.4 926.32,-287.4 926.32,-287.4 926.32,-287.4 926.32,-289.85 926.32,-289.85"/>
<polygon fill="black" stroke="black" stroke-width="1.5" points="922.82,-289.85 926.32,-299.85 929.82,-289.85 922.82,-289.85"/>
<text text-anchor="middle" x="698.75" y="-311.8" font-family="Helvetica,sans-Serif" font-size="9.00">aggregate</text>
</g>
<!-- scope2_market -->
<g id="node8" class="node">
<title>scope2_market</title>
<ellipse fill="#fff3e0" stroke="#f57c00" cx="365.69" cy="-217" rx="58.88" ry="21.43"/>
<text text-anchor="middle" x="365.69" y="-220" font-family="Helvetica,sans-Serif" font-size="10.00">Market&#45;based</text>
<text text-anchor="middle" x="365.69" y="-209" font-family="Helvetica,sans-Serif" font-size="10.00">0.06 ton&#45;CO2</text>
</g>
<!-- scope2_market&#45;&gt;report_moe_mkt -->
<g id="edge15" class="edge">
<title>scope2_market&#45;&gt;report_moe_mkt</title>
<path fill="none" stroke="black" stroke-width="1.5" d="M404.22,-233.11C530.88,-233.11 926.32,-233.11 926.32,-233.11 926.32,-233.11 926.32,-235.67 926.32,-235.67"/>
<polygon fill="black" stroke="black" stroke-width="1.5" points="922.82,-235.67 926.32,-245.67 929.82,-235.67 922.82,-235.67"/>
<text text-anchor="middle" x="698.75" y="-219.8" font-family="Helvetica,sans-Serif" font-size="9.00">aggregate</text>
</g>
<!-- scope2_market&#45;&gt;report_ghg_mkt -->
<g id="edge21" class="edge">
<title>scope2_market&#45;&gt;report_ghg_mkt</title>
<path fill="none" stroke="black" stroke-width="1.5" d="M424.31,-215.11C424.31,-215.11 872.31,-215.11 872.31,-215.11"/>
<polygon fill="black" stroke="black" stroke-width="1.5" points="872.31,-218.61 882.31,-215.11 872.31,-211.61 872.31,-218.61"/>
<text text-anchor="middle" x="698.75" y="-173.8" font-family="Helvetica,sans-Serif" font-size="9.00">aggregate</text>
</g>
<!-- scope3_total -->
<g id="node13" class="node">
<title>scope3_total</title>
<polygon fill="#f3e5f5" stroke="#7b1fa2" points="698.75,-60 602.11,-42 698.75,-24 795.39,-42 698.75,-60"/>
<text text-anchor="middle" x="698.75" y="-39.5" font-family="Helvetica,sans-Serif" font-size="10.00">Total: 24.08 ton&#45;CO2</text>
</g>
<!-- scope3_cat1&#45;&gt;scope3_total -->
<g id="edge8" class="edge">
<title>scope3_cat1&#45;&gt;scope3_total</title>
<path fill="none" stroke="black" stroke-width="1.5" d="M424.08,-41.11C424.08,-41.11 596.75,-41.11 596.75,-41.11"/>
<polygon fill="black" stroke="black" stroke-width="1.5" points="596.75,-44.61 606.75,-41.11 596.75,-37.61 596.75,-44.61"/>
<text text-anchor="middle" x="523.18" y="-39.8" font-family="Helvetica,sans-Serif" font-size="9.00">sum</text>
</g>
<!-- scope3_cat4&#45;&gt;scope3_total -->
<g id="edge9" class="edge">
<title>scope3_cat4&#45;&gt;scope3_total</title>
<path fill="none" stroke="black" stroke-width="1.5" d="M422.56,-157C499.25,-157 626.32,-157 626.32,-157 626.32,-157 626.32,-56.65 626.32,-56.65"/>
<polygon fill="black" stroke="black" stroke-width="1.5" points="629.82,-56.65 626.32,-46.65 622.82,-56.65 629.82,-56.65"/>
<text text-anchor="middle" x="523.18" y="-105.8" font-family="Helvetica,sans-Serif" font-size="9.00">sum</text>
</g>
<!-- scope3_cat5&#45;&gt;scope3_total -->
<g id="edge10" class="edge">
<title>scope3_cat5&#45;&gt;scope3_total</title>
<path fill="none" stroke="black" stroke-width="1.5" d="M422.42,-96C495.8,-96 614.32,-96 614.32,-96 614.32,-96 614.32,-54.32 614.32,-54.32"/>
<polygon fill="black" stroke="black" stroke-width="1.5" points="617.82,-54.32 614.32,-44.32 610.82,-54.32 617.82,-54.32"/>
<text text-anchor="middle" x="523.18" y="-72.8" font-family="Helvetica,sans-Serif" font-size="9.00">sum</text>
</g>
<!-- energy_dup -->
<g id="node12" class="node">
<title>energy_dup</title>
<polygon fill="#f3e5f5" stroke="#7b1fa2" points="698.75,-114 637.04,-96 698.75,-78 760.46,-96 698.75,-114"/>
<text text-anchor="middle" x="698.75" y="-93.5" font-family="Helvetica,sans-Serif" font-size="10.00">EnergyData</text>
</g>
<!-- energy_dup&#45;&gt;scope2_location -->
<g id="edge3" class="edge">
<title>energy_dup&#45;&gt;scope2_location</title>
<path fill="none" stroke="#2196f3" stroke-width="1.5" d="M699.32,-114.04C699.32,-157.51 699.32,-264.52 699.32,-264.52 699.32,-264.52 427.82,-264.52 427.82,-264.52"/>
<polygon fill="#2196f3" stroke="#2196f3" stroke-width="1.5" points="427.82,-261.02 417.82,-264.52 427.82,-268.02 427.82,-261.02"/>
<text text-anchor="middle" x="523.18" y="-268.8" font-family="Helvetica,sans-Serif" font-size="9.00">energy_to_scope2_location</text>
<text text-anchor="middle" x="523.18" y="-258.8" font-family="Helvetica,sans-Serif" font-size="9.00">[Scope2]</text>
</g>
<!-- energy_dup&#45;&gt;scope2_market -->
<g id="edge4" class="edge">
<title>energy_dup&#45;&gt;scope2_market</title>
<path fill="none" stroke="#2196f3" stroke-width="1.5" d="M668.32,-105.43C668.32,-131.43 668.32,-202.23 668.32,-202.23 668.32,-202.23 418.09,-202.23 418.09,-202.23"/>
<polygon fill="#2196f3" stroke="#2196f3" stroke-width="1.5" points="418.09,-198.73 408.09,-202.23 418.09,-205.73 418.09,-198.73"/>
<text text-anchor="middle" x="523.18" y="-148.8" font-family="Helvetica,sans-Serif" font-size="9.00">energy_to_scope2_market</text>
<text text-anchor="middle" x="523.18" y="-138.8" font-family="Helvetica,sans-Serif" font-size="9.00">[Scope2]</text>
</g>
<!-- scope3_total&#45;&gt;report_moe_loc -->
<g id="edge13" class="edge">
<title>scope3_total&#45;&gt;report_moe_loc</title>
<path fill="none" stroke="black" stroke-width="1.5" d="M768.32,-47.12C768.32,-88.58 768.32,-367.93 768.32,-367.93 768.32,-367.93 868.13,-367.93 868.13,-367.93"/>
<polygon fill="black" stroke="black" stroke-width="1.5" points="868.13,-371.43 878.13,-367.93 868.13,-364.43 868.13,-371.43"/>
<text text-anchor="middle" x="836.82" y="-378.8" font-family="Helvetica,sans-Serif" font-size="9.00">aggregate</text>
</g>
<!-- scope3_total&#45;&gt;report_moe_mkt -->
<g id="edge16" class="edge">
<title>scope3_total&#45;&gt;report_moe_mkt</title>
<path fill="none" stroke="black" stroke-width="1.5" d="M782.32,-44.64C782.32,-68.82 782.32,-250.89 782.32,-250.89 782.32,-250.89 871.98,-250.89 871.98,-250.89"/>
<polygon fill="black" stroke="black" stroke-width="1.5" points="871.98,-254.39 881.98,-250.89 871.98,-247.39 871.98,-254.39"/>
<text text-anchor="middle" x="836.82" y="-206.8" font-family="Helvetica,sans-Serif" font-size="9.00">aggregate</text>
</g>
<!-- scope3_total&#45;&gt;report_ghg_loc -->
<g id="edge19" class="edge">
<title>scope3_total&#45;&gt;report_ghg_loc</title>
<path fill="none" stroke="black" stroke-width="1.5" d="M775.32,-46.13C775.32,-79.59 775.32,-305 775.32,-305 775.32,-305 868.2,-305 868.2,-305"/>
<polygon fill="black" stroke="black" stroke-width="1.5" points="868.2,-308.5 878.2,-305 868.2,-301.5 868.2,-308.5"/>
<text text-anchor="middle" x="836.82" y="-292.8" font-family="Helvetica,sans-Serif" font-size="9.00">aggregate</text>
</g>
<!-- scope3_total&#45;&gt;report_ghg_mkt -->
<g id="edge22" class="edge">
<title>scope3_total&#45;&gt;report_ghg_mkt</title>
<path fill="none" stroke="black" stroke-width="1.5" d="M789.32,-43.44C789.32,-59.73 789.32,-208.67 789.32,-208.67 789.32,-208.67 872.25,-208.67 872.25,-208.67"/>
<polygon fill="black" stroke="black" stroke-width="1.5" points="872.25,-212.17 882.25,-208.67 872.25,-205.17 872.25,-212.17"/>
<text text-anchor="middle" x="836.82" y="-96.8" font-family="Helvetica,sans-Serif" font-size="9.00">aggregate</text>
</g>
<!-- sup_Scope1_energy_input -->
<g id="node18" class="node">
<title>sup_Scope1_energy_input</title>
<polygon fill="#ff6b6b" stroke="black" points="66.6,-310 -0.1,-292 66.6,-274 133.3,-292 66.6,-310"/>
<text text-anchor="middle" x="66.6" y="-289.5" font-family="Helvetica,sans-Serif" font-size="10.00" fill="white">&amp;Scope1{...}</text>
</g>
<!-- dup_Energy_energy_input -->
<g id="node19" class="node">
<title>dup_Energy_energy_input</title>
<polygon fill="#4ecdc4" stroke="black" points="66.6,-364 6.05,-346 66.6,-328 127.14,-346 66.6,-364"/>
<text text-anchor="middle" x="66.6" y="-343.5" font-family="Helvetica,sans-Serif" font-size="10.00" fill="white">! &amp;Energy=</text>
</g>
<!-- sup_Scope2_energy_dup -->
<g id="node20" class="node">
<title>sup_Scope2_energy_dup</title>
<polygon fill="#ff6b6b" stroke="black" points="66.6,-418 -0.1,-400 66.6,-382 133.3,-400 66.6,-418"/>
<text text-anchor="middle" x="66.6" y="-397.5" font-family="Helvetica,sans-Serif" font-size="10.00" fill="white">&amp;Scope2{...}</text>
</g>
</g>
</svg>
