<?xml version="1.0" encoding="UTF-8" standalone="no"?>
<!DOCTYPE svg PUBLIC "-//W3C//DTD SVG 1.1//EN"
 "http://www.w3.org/Graphics/SVG/1.1/DTD/svg11.dtd">
<!-- Generated by graphviz version 2.43.0 (0)
 -->
<!-- Title: TypeInhabitation_Demo Pages: 1 -->
<svg width="840pt" height="483pt"
 viewBox="0.00 0.00 839.64 482.75" xmlns="http://www.w3.org/2000/svg" xmlns:xlink="http://www.w3.org/1999/xlink">
<g id="graph0" class="graph" transform="scale(1 1) rotate(0) translate(4 478.75)">
<title>TypeInhabitation_Demo</title>
<polygon fill="white" stroke="transparent" points="-4,4 -4,-478.75 835.64,-478.75 835.64,4 -4,4"/>
<!-- int_input -->
<g id="node1" class="node">
<title>int_input</title>
<ellipse fill="lightgray" stroke="black" cx="385.93" cy="-134.72" rx="26.74" ry="26.74"/>
<text text-anchor="middle" x="385.93" y="-138.52" font-family="Helvetica,sans-Serif" font-size="14.00">Int</text>
<text text-anchor="middle" x="385.93" y="-123.52" font-family="Helvetica,sans-Serif" font-size="14.00">42</text>
</g>
<!-- str_direct -->
<g id="node2" class="node">
<title>str_direct</title>
<ellipse fill="lightgray" stroke="black" cx="565.52" cy="-41.72" rx="41.94" ry="41.94"/>
<text text-anchor="middle" x="565.52" y="-45.52" font-family="Helvetica,sans-Serif" font-size="14.00">String</text>
<text text-anchor="middle" x="565.52" y="-30.52" font-family="Helvetica,sans-Serif" font-size="14.00">&quot;42&quot;</text>
</g>
<!-- int_input&#45;&gt;str_direct -->
<g id="edge4" class="edge">
<title>int_input&#45;&gt;str_direct</title>
<path fill="none" stroke="black" d="M410.14,-122.56C437.67,-108.14 484.21,-83.77 519.01,-65.55"/>
<polygon fill="black" stroke="black" points="520.8,-68.56 528.03,-60.83 517.55,-62.36 520.8,-68.56"/>
<text text-anchor="middle" x="468.3" y="-114.52" font-family="Helvetica,sans-Serif" font-size="14.00">intToString</text>
</g>
<!-- float_via -->
<g id="node3" class="node">
<title>float_via</title>
<ellipse fill="lightgray" stroke="black" cx="565.52" cy="-221.72" rx="35.21" ry="35.21"/>
<text text-anchor="middle" x="565.52" y="-225.52" font-family="Helvetica,sans-Serif" font-size="14.00">Float</text>
<text text-anchor="middle" x="565.52" y="-210.52" font-family="Helvetica,sans-Serif" font-size="14.00">42.0</text>
</g>
<!-- int_input&#45;&gt;float_via -->
<g id="edge5" class="edge">
<title>int_input&#45;&gt;float_via</title>
<path fill="none" stroke="black" d="M410.51,-146.27C439.52,-160.49 489.24,-184.84 524.33,-202.03"/>
<polygon fill="black" stroke="black" points="522.84,-205.2 533.36,-206.45 525.92,-198.91 522.84,-205.2"/>
<text text-anchor="middle" x="468.3" y="-194.52" font-family="Helvetica,sans-Serif" font-size="14.00">intToFloat</text>
</g>
<!-- bool_via -->
<g id="node5" class="node">
<title>bool_via</title>
<ellipse fill="lightgray" stroke="black" cx="565.52" cy="-134.72" rx="33.47" ry="33.47"/>
<text text-anchor="middle" x="565.52" y="-138.52" font-family="Helvetica,sans-Serif" font-size="14.00">Bool</text>
<text text-anchor="middle" x="565.52" y="-123.52" font-family="Helvetica,sans-Serif" font-size="14.00">true</text>
</g>
<!-- int_input&#45;&gt;bool_via -->
<g id="edge7" class="edge">
<title>int_input&#45;&gt;bool_via</title>
<path fill="none" stroke="black" d="M413.13,-134.72C441.81,-134.72 488.21,-134.72 522.1,-134.72"/>
<polygon fill="black" stroke="black" points="522.18,-138.22 532.17,-134.72 522.17,-131.22 522.18,-138.22"/>
<text text-anchor="middle" x="468.3" y="-138.52" font-family="Helvetica,sans-Serif" font-size="14.00">isPositive</text>
</g>
<!-- str_via_float -->
<g id="node4" class="node">
<title>str_via_float</title>
<ellipse fill="lightgray" stroke="black" cx="781.44" cy="-264.72" rx="50.41" ry="50.41"/>
<text text-anchor="middle" x="781.44" y="-268.52" font-family="Helvetica,sans-Serif" font-size="14.00">String</text>
<text text-anchor="middle" x="781.44" y="-253.52" font-family="Helvetica,sans-Serif" font-size="14.00">&quot;42.00&quot;</text>
</g>
<!-- float_via&#45;&gt;str_via_float -->
<g id="edge6" class="edge">
<title>float_via&#45;&gt;str_via_float</title>
<path fill="none" stroke="black" d="M600.41,-228.53C632.97,-235.08 682.81,-245.1 721.81,-252.93"/>
<polygon fill="black" stroke="black" points="721.49,-256.44 731.98,-254.98 722.87,-249.58 721.49,-256.44"/>
<text text-anchor="middle" x="669.23" y="-254.52" font-family="Helvetica,sans-Serif" font-size="14.00">floatToString</text>
</g>
<!-- str_via_bool -->
<g id="node6" class="node">
<title>str_via_bool</title>
<ellipse fill="lightgray" stroke="black" cx="781.44" cy="-134.72" rx="41.94" ry="41.94"/>
<text text-anchor="middle" x="781.44" y="-138.52" font-family="Helvetica,sans-Serif" font-size="14.00">String</text>
<text text-anchor="middle" x="781.44" y="-123.52" font-family="Helvetica,sans-Serif" font-size="14.00">&quot;true&quot;</text>
</g>
<!-- bool_via&#45;&gt;str_via_bool -->
<g id="edge8" class="edge">
<title>bool_via&#45;&gt;str_via_bool</title>
<path fill="none" stroke="black" d="M599.01,-134.72C633.63,-134.72 688.92,-134.72 729.37,-134.72"/>
<polygon fill="black" stroke="black" points="729.58,-138.22 739.58,-134.72 729.58,-131.22 729.58,-138.22"/>
<text text-anchor="middle" x="669.23" y="-138.52" font-family="Helvetica,sans-Serif" font-size="14.00">boolToString</text>
</g>
<!-- str_superposition -->
<g id="node7" class="node">
<title>str_superposition</title>
<ellipse fill="lightgray" stroke="black" cx="152.03" cy="-322.72" rx="152.06" ry="152.06"/>
<text text-anchor="middle" x="152.03" y="-326.52" font-family="Helvetica,sans-Serif" font-size="14.00">String</text>
<text text-anchor="middle" x="152.03" y="-311.52" font-family="Helvetica,sans-Serif" font-size="14.00">&amp;P{direct, viaFloat, viaBool}</text>
</g>
<!-- sup_Proof_int_input -->
<g id="node8" class="node">
<title>sup_Proof_int_input</title>
<polygon fill="lightcoral" stroke="black" points="152.03,-152.72 90.36,-134.72 152.03,-116.72 213.7,-134.72 152.03,-152.72"/>
<text text-anchor="middle" x="152.03" y="-131.02" font-family="Helvetica,sans-Serif" font-size="14.00">δ_Proof</text>
</g>
<!-- sup_Proof_int_input&#45;&gt;int_input -->
<g id="edge1" class="edge">
<title>sup_Proof_int_input&#45;&gt;int_input</title>
<path fill="none" stroke="black" stroke-dasharray="5,2" d="M213.65,-134.72C256.65,-134.72 312.9,-134.72 348.98,-134.72"/>
<polygon fill="black" stroke="black" points="349.04,-138.22 359.04,-134.72 349.04,-131.22 349.04,-138.22"/>
<text text-anchor="middle" x="331.56" y="-138.52" font-family="Helvetica,sans-Serif" font-size="14.00">p0</text>
</g>
<!-- sup_Proof_int_input&#45;&gt;str_direct -->
<g id="edge2" class="edge">
<title>sup_Proof_int_input&#45;&gt;str_direct</title>
<path fill="none" stroke="black" stroke-dasharray="5,2" d="M185.4,-126.27C225.9,-115.8 297.41,-97.64 359.06,-83.72 411.88,-71.79 472.67,-59.54 514.35,-51.38"/>
<polygon fill="black" stroke="black" points="515.11,-54.79 524.25,-49.44 513.77,-47.92 515.11,-54.79"/>
<text text-anchor="middle" x="385.93" y="-87.52" font-family="Helvetica,sans-Serif" font-size="14.00">p1</text>
</g>
<!-- sup_Proof_int_input&#45;&gt;str_via_float -->
<g id="edge3" class="edge">
<title>sup_Proof_int_input&#45;&gt;str_via_float</title>
<path fill="none" stroke="black" stroke-dasharray="5,2" d="M197.39,-139.5C227.89,-143.55 269.04,-150.52 304.06,-161.72 406.97,-194.63 418.86,-239.96 523.8,-265.72 567.61,-276.48 580.12,-268.83 625.23,-269.72 664.34,-270.49 674.15,-271.17 713.23,-269.72 715.79,-269.62 718.4,-269.51 721.04,-269.38"/>
<polygon fill="black" stroke="black" points="721.49,-272.86 731.28,-268.8 721.1,-265.87 721.49,-272.86"/>
<text text-anchor="middle" x="468.3" y="-264.52" font-family="Helvetica,sans-Serif" font-size="14.00">p2</text>
</g>
</g>
</svg>
